<svg xmlns="http://www.w3.org/2000/svg" width="112" height="144"><g fill="#21272D"><path d="M49.28 12.67c-.73.63-1.26 1.05-1.99 1.37-.32.21-.63.21-.63.1-.11-.1.1-.31.31-.42.53-.32.95-.63 1.58-1.16.74-.74 1.37-1.58 1.89-2.52.52-.95.84-1.89 1.16-2.94.21-1.05.42-1.79.42-2.84.11-1.05 0-1.57-.53-1.99-.31-.21-.53-.53-.31-.74.21-.21.42-.21.94-.11.42.11.95.32 1.37.84.42.53.42.84.21 1.05-.1.11-.21.32-.21.63 0 .52-.11 1.37-.31 2.42-.33 1.48-.75 2.64-1.48 3.69-.74.94-1.47 1.78-2.42 2.62zm6.41-3.15c.21-.21.31-.42.21-1.15v-3.26c0-1.26.11-2.1.11-2.84s-.11-1.15-.64-1.57c-.42-.31-.63-.73-.42-.84.1-.21.42-.21.74-.1.42.11.73.21 1.37.53.52.42.63.94.42 1.26-.21.32-.21.84-.21 2.73-.11 1.89-.11 3.47-.11 3.99s.11.63.32.63c.32 0 .63-.1 1.47-.63.74-.53 1.26-.84 2.1-1.58.84-.73 1.58-1.47 2-1.89.42-.42.84-.73.94-.53.11.1 0 .42-.53.94-.63.63-1.68 1.89-2.73 2.84-1.16 1.05-2 1.79-2.73 2.31s-1.15.73-1.47.73c-.42 0-.73-.31-.94-.63-.22-.31-.11-.62.1-.94zM63.25 31.69c-.21.11-.42 0-.73 0s-1.05-.11-1.89 0c-.84 0-2.52 0-3.99.11-1.48.1-3.05.2-3.68.2-.63 0-1.68.11-2.31.21s-1.15.21-1.58.11c-.53-.11-.73-.32-1.15-.63-.31-.31-.42-.63-.31-.84.21-.21.63-.11.84 0 .21.1.42.21.95.31.74.21 2.1 0 2.94-.1.63 0 1.68-.11 2.62-.11v-3.57c0-.84-.11-1.26-.21-1.68 0-.21-.21-.42-.53-.63l-.63.11c-.84.11-1.47.21-2.1.21-.63 0-1.05-.21-1.36-.53-.32-.31-.53-.63-.32-.84.21-.21.53 0 .84.1.31.11.63.21 1.16.21.53 0 1.47-.1 2.42-.21.84-.1 1.68-.1 2.52-.21.84-.11 2-.21 2.52-.32.53-.1.95-.1 1.36.21.42.21.63.52.53.84-.11.32-.32.32-.63.32-.42-.11-.84-.21-1.47-.21-.53 0-1.58.11-2.42.21-.32 0-.74.1-1.16.1.32.11.53.21.74.42.21.21.21.53.11.63-.11.11-.21.42-.21.63s-.11 1.26-.11 2-.11 1.37-.21 2.42h.1c1.16-.1 2.42-.21 3.26-.21.84 0 1.58-.1 2.1-.21.53-.1 1.05-.1 1.68.32.52.21.42.52.31.63zM54.85 53.44c.74-.84 1.26-1.57 1.89-2.52l-.32-.32c-.42-.53-.84-.84-1.58-1.26-.21-.1-.21-.31-.21-.31.1-.21.42-.11.63 0 .74.31 1.26.63 1.89 1.05.42-.84.84-1.47 1.16-2.21.42-.95.63-1.68.63-1.89 0-.32-.11-.32-.32-.32h-1.47s-1.15.1-1.99.21c-.11 0-.21.11-.42.11-.42.73-.95 1.47-1.47 2.21-.63.74-1.26 1.47-1.89 2-.74.63-1.26.95-1.57 1.05-.32.21-.63.21-.74.11s0-.32.21-.42c.32-.21.63-.31.95-.63.74-.63 1.58-1.58 2.1-2.31.53-.74 1.15-1.79 1.37-2.31s.53-1.37.63-1.68c.11-.42 0-.63-.21-.84-.21-.1-.21-.31-.11-.52.11-.21.42-.21.84 0s.74.42.84.95c.1.42-.11 1.05-.42 1.68l2.31-.1c.53 0 1.26-.21 1.37-.32.1-.11.31-.21.42-.42.21-.21.42-.32.73-.21.32.1.74.63.95.95.21.31.1.52-.21.84-.42.31-.63.53-.74.84-.21.42-.31.94-.74 1.79-.31.73-.63 1.37-1.16 2.21.31.32.63.63.95.95.53.53.84 1.47.21 1.89-.74.42-1.37-.53-1.58-1.16l-.21-.53c-.42.63-.94 1.26-1.47 1.79-.63.63-1.16 1.16-2.31 2-1.15.84-2.42 1.47-3.46 1.89-.42.21-.95.32-1.26.42-.21.1-.42 0-.53-.1-.11-.21 0-.32.32-.42.63-.21 1.16-.42 1.68-.63.53-.32 1.37-.73 1.89-1.16.84-.78 1.58-1.51 2.42-2.35zm6.51-9.77c-.32-.31-.74-.63-1.26-1.05-.21-.11-.31-.32-.21-.42.1-.1.21-.1.32-.1.31 0 .74.1 1.26.31.42.21 1.05.53 1.37.95.21.31 0 .73-.32.84-.32-.01-.84-.22-1.16-.53zm1.79-.95c-.32-.42-.74-.63-1.37-.94-.21-.11-.31-.32-.21-.42s.21-.1.32-.1c.32 0 .73 0 1.26.21.42.11 1.15.53 1.37.84.21.31 0 .73-.32.84-.21.1-.74-.01-1.05-.43zM52.54 77.08c.32-.11.63-.11 1.47-.42 1.05-.42 1.89-.84 2.73-1.47.74-.63 1.47-1.47 2.1-2.21.53-.74 1.16-1.68 1.58-2.63.42-1.05.53-1.68.63-2.42.1-.63 0-1.37-.21-1.79-.21-.42-.42-.73-.21-.94.31-.32 1.05.11 1.37.42.31.21.52.52.73.95.21.42 0 .84-.21 1.15-.21.32-.42 1.47-.94 2.63s-1.05 2-1.79 2.94c-.84.94-1.58 1.68-2.31 2.21-.63.53-1.47 1.05-2.42 1.47-.84.31-1.47.53-2.31.53-.21 0-.42 0-.42-.21-.21-.11-.11-.21.21-.21zm.21-8.94c-.21-.21-.42-.42-.32-.53.21-.21.63 0 1.05.21.53.42.84.95 1.05 1.47.21.63 0 .95-.31 1.05-.31.11-.63-.1-.74-.32-.1-.21-.21-.63-.21-1.05-.21-.41-.42-.72-.52-.83zm3.15-1.26c-.1-.21-.21-.53-.31-.63-.21-.21-.42-.42-.21-.53.21-.1.53 0 .84.21.32.21.74.63 1.05 1.26.21.42.21 1.05-.21 1.26-.42.21-.84 0-.84-.52-.22-.31-.32-.73-.32-1.05zM60.94 87.37c.21.31.1.74-.21.95-.32.32-.42.74-.63 1.26-.42 1.16-.84 2-1.68 3.36-.84 1.26-1.68 2.31-2.94 3.47-1.26 1.16-2.1 1.68-3.15 2.31-1.05.63-1.79.95-2.52 1.16-.42.1-.63.1-.74 0-.1-.11.11-.32.32-.42.21-.1.53-.21 1.26-.63 1.26-.63 1.89-1.05 3.05-2 1.26-1.05 2.31-2.21 2.94-3.26.63-1.05 1.26-2.21 1.57-3.05s.53-1.58.63-2.1c.11-.31.21-.63 0-.74-.11-.1-.52-.1-1.05 0-.84.11-1.68.11-2.63.32-.94.21-1.89.42-2.73.53-.84.11-1.26 0-1.79-.42-.53-.32-.63-.95-.53-1.05.21-.21.53-.11.74 0 .21.1.63.21 1.26.31.63.11 1.26 0 2.42-.1 1.05-.11 2.42-.21 3.05-.32.63-.11.95-.11 1.26-.32.31-.21.63-.32 1.05-.11.53.11.84.54 1.05.85zm2.84-.1c-.53.21-.94.1-1.05-.11-.1-.21 0-.52.32-.63.32-.11.52-.42.52-.73 0-.63-.52-.95-1.05-.84-.63.1-.73.84-.42 1.37.1.21.21.53 0 .63-.21.11-.42-.11-.63-.53-.63-1.47.32-2.52 1.47-2.52 1.26.1 2 .95 1.58 2.21-.01.62-.22.94-.74 1.15zM60.21 115.11c-.11.63-.32 1.68-.32 2.42 0 .21.21.32.52.53.53.31.53.73.32 1.05-.21.21-.95.1-1.16 0-.32-.1-.74-.21-1.26-.21-.63 0-2.31.11-3.05.11-.84 0-2.1.1-2.63.1-.52.1-.95.1-1.37 0-.42-.1-.74-.31-1.26-.63-.42-.32-.52-.74-.31-.95.21-.21.42-.21.63-.11.21.11.31.21.74.32.42.1 1.79.1 3.36.1s3.78-.1 3.99-.1c.21 0 .31-.11.42-.32.11-.74.21-1.37.42-2.31.11-.84.21-2 .32-2.42 0-.52-.32-.63-.63-.63-.32 0-1.15.11-1.89.11s-2.21.21-3.15.21c-.95.11-2.31.21-2.94.21-.63 0-1.05-.32-1.37-.74-.32-.42-.32-.84-.1-1.05.21-.21.53 0 .74.11.21.21.42.31.84.42.52.11 1.79.11 3.15.11 1.37 0 2.94-.11 3.57-.21.63-.11 1.26-.21 1.58-.42.42-.21.63-.11.84.11.21.21.63.53.94.94.32.42.11.84 0 1.05-.21.21-.42.53-.53.84-.2.2-.31.72-.41 1.36zM61.99 140.21c.63 1.05 1.05 2.42.21 2.73-.94.32-1.37-.63-1.89-2-.1-.21-.1-.31-.21-.42-.74.21-2.62.63-3.57.84-1.05.21-3.36.84-4.1.94-.74.11-1.16.32-1.79.95-.21.21-.63.42-.84.42-.31 0-.84-.21-1.37-.63-.52-.42-.63-1.05-.63-1.37.11-.31.42-.31.95-.31.52 0 .73-.53 1.36-1.47.63-1.05 1.05-1.89 1.89-3.26.84-1.37 1.68-3.05 2-3.78s0-1.47-.21-1.78c-.21-.32-.42-.63-.21-.74.31-.21.84-.1 1.47.32.42.31.63.63.74 1.37 0 .53-.21.95-.63 1.47-.32.52-1.58 2.52-2.31 3.68-.63 1.05-2.1 3.57-2.21 3.78-.1.21 0 .32.21.32s.74-.11 1.58-.21c.84-.21 2.94-.53 3.99-.63.95-.21 2.31-.42 3.47-.63-.31-.63-.74-1.16-1.26-1.68-.31-.32-.52-.53-.31-.63.21-.21.42-.1 1.05.31 1.15.73 2.1 1.57 2.62 2.41z"/></g><path fill="#21272D" d="M65.56 66.25l-.42-.84c1.05 1.26 1.99 1.78 2.94 1.68l.42.84c-.83.11-1.88-.52-2.94-1.68zm33.1 12.3c-11.34 1.89-17.75 3.04-19.33 3.36-7.46 1.58-11.45 2.63-11.77 3.05l-1.05-.32c-.32-.52 2.21-1.36 7.46-2.52l-.11-.32c.21-.31.42-.63.63-.74.21-.21.42-.42.74-.63.63-.53 1.26-.95 1.89-1.37l.74.63c-.42.21-.84.42-1.37.84l-.63.53c-.42.31-.73.63-.94.84 6.61-1.36 14.6-2.51 23.74-3.35zm-30.26-8.62c0 1.15.32 2.42.95 3.78-.95-1.58-1.37-3.04-1.37-4.62l.42.84zm8.83 9.04l-.32.21c-.63-.63-1.05-1.15-1.05-1.57-3.05-.11-5.25-1.37-6.51-3.89 1.26 2 3.36 3.05 6.09 3.15 2 .11 3.78-.21 5.36-.84.84-.31 2.1-1.05 3.68-2.1-1.68-.31-3.26-.95-4.83-1.89-.63.52-1.16.84-1.37.84-.53.1-1.05.1-1.58.1-.74 0-1.26-.1-1.58-.42l-.42-.73c.31.32.84.42 1.58.42.53 0 1.15-.1 1.68-.21.32-.11.63-.21 1.05-.42-.94-.63-2.1-1.57-3.57-2.94-1.26-1.16-2.1-1.89-2.62-2.1-1.05-.42-2-.63-2.94-.63-.63 0-1.16.1-1.68.31.53-.63 1.26-.84 2.1-.84.63 0 1.26.1 1.89.42.53.21 1.58 1.05 3.05 2.42 1.58 1.47 2.94 2.52 4.1 3.26.63-.31 1.37-.73 2.31-1.26-.84.84-1.47 1.26-1.79 1.58 1.58.84 3.15 1.37 4.83 1.47l.21.42c1.37-.63 3.26-1.16 5.46-1.68-1.47.42-3.05 1.26-4.83 2.31-2 1.26-3.36 2.1-4.1 2.42-1.68.73-3.47 1.05-5.57 1.05.63.29 1.05.82 1.37 1.14zm-7.04-11.04c-.42 0-.63-.21-.63-.63s.21-.53.63-.53c.42 0 .53.21.53.53-.01.42-.11.63-.53.63zm28.68 9.04c.53-.63 1.16-1.37 1.79-2.31.31-.42.53-.84.74-1.26l.94-1.68c.21-.52.53-1.16.74-2.1.1 1.79-.21 3.26-.84 4.41-.85 1.26-2 2.31-3.37 2.94zm8.4 7.98c-.63-.74-1.16-1.26-1.58-1.58l-1.58-1.15c-1.37-1.05-2.63-1.79-3.68-2.31 1.05 0 2 .21 3.05.63l1.26.63c1.06.95 1.9 2.21 2.53 3.78zm-4.94-7.35c.42-.32 1.05-.63 2-.95l1.26-.53c.73-.31 1.78-.63 3.15-.84 1.58-.32 2.73-.53 3.26-.74-1.47.84-2.73 1.47-3.89 2-.53.21-.95.32-1.26.53-1.57.32-3.15.53-4.52.53z"/></svg>